<?xml version="1.0" encoding="iso-8859-1"?>
<!-- Generator: Adobe Illustrator 19.1.0, SVG Export Plug-In . SVG Version: 6.00 Build 0)  -->
<svg version="1.1" id="Layer_1" xmlns="http://www.w3.org/2000/svg" xmlns:xlink="http://www.w3.org/1999/xlink" x="0px" y="0px"
	 viewBox="0 0 720 114.912" style="enable-background:new 0 0 720 114.912;" xml:space="preserve">
<g>
	<g>
		<path style="fill:#20D1CC;" d="M136.03,50.165c0-11.711,9.528-21.239,21.24-21.239s21.24,9.528,21.24,21.239v50.281
			c0,7.989,6.474,14.463,14.463,14.463c7.988,0,14.463-6.474,14.463-14.463V50.165C207.435,22.505,184.93,0,157.27,0
			c-13.959,0-26.6,5.737-35.704,14.971c8.935,9.063,14.461,21.494,14.461,35.194H136.03z"/>
		<path style="fill:#05D0E0;" d="M107.104,50.165c0-13.701,5.527-26.132,14.461-35.194C112.462,5.737,99.821,0,85.862,0
			c-13.957,0-26.597,5.735-35.7,14.966c8.913,9.038,14.433,21.429,14.463,35.088c0.06-11.66,9.562-21.129,21.237-21.129
			c11.711,0,21.239,9.528,21.239,21.239H107.104z"/>
		<path style="fill:#01A9B2;" d="M136.027,100.446V50.165c0-13.701-5.527-26.132-14.461-35.194
			c-8.935,9.063-14.461,21.494-14.461,35.194v50.284c0,3.993,1.618,7.608,4.234,10.226c2.617,2.616,6.232,4.234,10.226,4.234
			C129.553,114.909,136.027,108.435,136.027,100.446z"/>
		<path style="fill:#0282C9;" d="M14.463,0C6.474,0,0,6.475,0,14.463c0,7.989,6.474,14.463,14.463,14.463
			c11.674,0,21.177,9.468,21.237,21.129c0.03-13.659,5.55-26.05,14.463-35.088C41.06,5.735,28.42,0,14.463,0z"/>
		<path style="fill:#016BB1;" d="M35.7,50.054c0,0.037,0.003,0.074,0.003,0.111v50.281c0,7.989,6.474,14.463,14.463,14.463
			c2.494,0,4.841-0.632,6.889-1.743c4.508-2.449,7.568-7.225,7.568-12.717V50.165c0-0.037,0.003-0.074,0.003-0.111
			c-0.03-13.659-5.55-26.05-14.463-35.088C41.25,24.005,35.729,36.395,35.7,50.054z"/>
	</g>
	<circle style="fill:#06429E;" cx="14.454" cy="14.454" r="14.454"/>
	<circle style="fill:#01569A;" cx="50.15" cy="100.458" r="14.454"/>
	<circle style="fill:#008C9D;" cx="121.558" cy="100.458" r="14.454"/>
	<circle style="fill:#03ABA3;" cx="192.981" cy="100.458" r="14.454"/>
</g>
<g>
	<path style="fill:#06429E;" d="M288.07,44.833c-5.227,0-10.304,2.389-12.993,8.139c-1.866-5.899-6.495-8.139-12.394-8.139
		c-4.182,0-8.662,1.792-10.827,6.123c0,0,0-2.307,0-2.328c0-1.711-1.387-3.099-3.099-3.099c-1.711,0-3.099,1.387-3.099,3.099
		c0,0.022,0,31.335,0,31.335c0,1.711,1.387,3.099,3.099,3.099c1.711,0,3.099-1.387,3.099-3.099h0V61.41
		c0-5.973,3.882-10.752,9.931-10.752c6.57,0,10.005,4.554,10.005,10.752v18.632h0.006c0,1.668,1.353,3.021,3.021,3.021
		s3.021-1.353,3.021-3.021V61.41c0-5.973,4.031-10.752,10.079-10.752c6.646,0,9.632,4.405,9.632,10.602v18.782h0.006
		c0,1.668,1.353,3.021,3.021,3.021c1.668,0,3.021-1.353,3.021-3.021V61.26C303.601,51.255,298.374,44.833,288.07,44.833z"/>
	<path style="fill:#06429E;" d="M395.382,44.833c-5.227,0-10.304,2.389-12.993,8.139c-1.866-5.899-6.495-8.139-12.394-8.139
		c-4.182,0-8.662,1.792-10.827,6.123c0,0,0-2.307,0-2.328c0-1.711-1.387-3.099-3.099-3.099c-1.711,0-3.099,1.387-3.099,3.099
		c0,0.022,0,31.335,0,31.335c0,1.711,1.387,3.099,3.099,3.099c1.711,0,3.099-1.387,3.099-3.099h0V61.41
		c0-5.973,3.882-10.752,9.931-10.752c6.57,0,10.005,4.554,10.005,10.752v18.632h0.006c0,1.668,1.352,3.021,3.021,3.021
		c1.668,0,3.021-1.353,3.021-3.021V61.41c0-5.973,4.031-10.752,10.079-10.752c6.646,0,9.632,4.405,9.632,10.602v18.782h0.006
		c0,1.668,1.353,3.021,3.021,3.021c1.668,0,3.021-1.353,3.021-3.021V61.26C410.913,51.255,405.686,44.833,395.382,44.833z"/>
	<path style="fill:#06429E;" d="M344.095,66.339c1.524,0,2.754-1.246,2.754-2.754c0-12.942-8.081-18.901-18.602-18.901
		c-11.125,0-19.115,7.989-19.115,19.115c0,11.722,7.99,19.264,19.413,19.264c5.37,0,11.475-1.971,15.131-5.73
		c0.55-0.565,0.808-1.187,0.808-1.948c0-1.521-1.233-2.754-2.754-2.754c-0.769,0-1.463,0.317-1.963,0.826
		c-2.632,2.543-7.23,3.932-11.072,3.932c-7.093,0-12.693-4.257-13.366-11.051L344.095,66.339z M315.329,61.185
		c1.046-7.093,6.646-10.976,13.068-10.976c7.215,0,12.128,3.858,12.459,10.976H315.329z"/>
	<path style="fill:#06429E;" d="M496.312,66.339c1.524,0,2.754-1.246,2.754-2.754c0-12.942-8.081-18.901-18.603-18.901
		c-11.125,0-19.115,7.989-19.115,19.115c0,11.722,7.989,19.264,19.413,19.264c5.37,0,11.475-1.971,15.131-5.73
		c0.55-0.565,0.808-1.187,0.808-1.948c0-1.521-1.233-2.754-2.753-2.754c-0.769,0-1.463,0.317-1.963,0.826
		c-2.632,2.543-7.23,3.932-11.072,3.932c-7.093,0-12.693-4.257-13.366-11.051L496.312,66.339z M467.546,61.185
		c1.046-7.093,6.646-10.976,13.068-10.976c7.215,0,12.128,3.858,12.459,10.976H467.546z"/>
	<path style="fill:#06429E;" d="M644.808,66.339c1.524,0,2.754-1.246,2.754-2.754c0-12.942-8.081-18.901-18.602-18.901
		c-11.125,0-19.115,7.989-19.115,19.115c0,11.722,7.989,19.264,19.413,19.264c5.37,0,11.475-1.971,15.131-5.73
		c0.55-0.565,0.808-1.187,0.808-1.948c0-1.521-1.233-2.754-2.754-2.754c-0.769,0-1.464,0.317-1.963,0.826
		c-2.632,2.543-7.23,3.932-11.072,3.932c-7.093,0-12.693-4.257-13.366-11.051L644.808,66.339z M616.042,61.185
		c1.046-7.093,6.646-10.976,13.068-10.976c7.215,0,12.128,3.858,12.459,10.976H616.042z"/>
	<path style="fill:#06429E;" d="M438.526,44.833c-5.154,0-11.201,2.314-13.741,7.318l0.005-18.964c0-1.688-1.372-3.063-3.064-3.063
		c-1.692,0-3.064,1.372-3.064,3.063v46.819c0,1.688,1.368,3.056,3.057,3.056c1.688,0,3.057-1.368,3.057-3.056l0-4.037
		c2.764,4.854,8.225,7.018,13.676,7.018c10.604,0,18.818-6.869,18.818-19.04C457.268,51.479,449.055,44.833,438.526,44.833z
		 M438.076,77.239c-7.317,0-12.992-5.376-12.992-13.366c0-7.915,5.75-13.365,12.992-13.365c7.171,0,12.994,4.704,12.994,13.44
		C451.071,72.385,445.247,77.239,438.076,77.239z"/>
	<path style="fill:#06429E;" d="M556.485,44.833c-5.45,0-10.901,2.165-13.664,7.018l0-4.037c0-1.688-1.332-3.056-3.02-3.056
		c-1.688,0-3.026,1.382-3.026,3.07c0,0,0,47.363,0,49.033c0,1.669,1.334,3.063,3.026,3.063c1.692,0,3.025-1.389,3.025-3.063
		c0-1.675-0.005-21.191-0.005-21.191c2.539,5.003,8.586,7.318,13.739,7.318c10.528,0,18.74-6.646,18.74-19.115
		C575.3,51.702,567.088,44.833,556.485,44.833z M556.111,77.313c-7.241,0-12.991-5.45-12.991-13.365
		c0-7.989,5.675-13.366,12.991-13.366c7.17,0,12.993,4.854,12.993,13.291C569.104,72.609,563.281,77.313,556.111,77.313z"/>
	<path style="fill:#06429E;" d="M529.792,46.256c-2.097-0.977-4.122-1.497-6.55-1.497c-4.556,0-9.11,1.643-11.5,5.675v-2.682
		c0-1.623-1.328-2.993-2.981-2.993s-2.993,1.34-2.993,2.993c0,0,0,30.582,0,32.248c0,1.666,1.371,3.063,3.063,3.063
		c1.692,0,3.063-1.388,3.063-3.063s-0.004-18.216-0.004-18.216c0-7.019,3.883-10.902,10.901-11.05c1.671,0,3.101,0.343,4.477,0.96
		c0.376,0.17,0.792,0.267,1.231,0.267c1.654,0,2.995-1.341,2.995-2.995C531.497,47.782,530.743,46.699,529.792,46.256z"/>
	<path style="fill:#06429E;" d="M606.186,46.256c-2.097-0.977-4.123-1.497-6.55-1.497c-4.556,0-9.11,1.643-11.5,5.675v-2.682
		c0-1.623-1.328-2.993-2.981-2.993c-1.653,0-2.993,1.34-2.993,2.993c0,0,0,30.582,0,32.248c0,1.666,1.371,3.063,3.063,3.063
		c1.692,0,3.063-1.388,3.063-3.063s-0.004-18.216-0.004-18.216c0-7.019,3.882-10.902,10.901-11.05c1.671,0,3.101,0.343,4.477,0.96
		c0.376,0.17,0.792,0.267,1.231,0.267c1.654,0,2.995-1.341,2.995-2.995C607.891,47.782,607.137,46.699,606.186,46.256z"/>
	<path style="fill:#06429E;" d="M668.061,60.737c-4.629-0.522-9.185-1.493-9.258-5.226c-0.075-3.958,4.03-5.974,9.183-5.899
		c2.24,0,6.347,0.523,8.289,1.568l1.607,0.777l0.002-0.003c0.374,0.184,0.792,0.289,1.236,0.289c1.553,0,2.811-1.259,2.811-2.811
		c0-1.196-0.748-2.215-1.801-2.621c-0.571-0.243-1.156-0.469-1.754-0.676c-3.343-1.157-7.042-1.75-10.465-1.75
		c-7.093-0.074-15.157,3.211-15.083,11.126c0,7.84,7.765,9.557,14.858,10.528c5.75,0.598,10.304,1.792,10.231,5.899
		c-0.15,4.854-5.974,5.675-9.632,5.675c-3.308,0-6.761-0.796-9.788-2.316l0,0.001c-0.405-0.207-0.863-0.327-1.349-0.327
		c-1.64,0-2.969,1.329-2.969,2.969c0,1.184,0.694,2.203,1.697,2.68l-0.001,0.002c0.017,0.008,0.035,0.015,0.052,0.023
		c0.033,0.015,0.066,0.03,0.1,0.044c3.838,1.788,7.48,2.599,12.11,2.599c8.362,0,15.605-3.509,15.754-11.125
		C684.04,62.903,674.855,61.633,668.061,60.737z"/>
	<path style="fill:#06429E;" d="M704.169,60.737c-4.629-0.522-9.185-1.493-9.258-5.226c-0.075-3.958,4.03-5.974,9.183-5.899
		c2.24,0,6.347,0.523,8.289,1.568l1.606,0.777l0.002-0.003c0.373,0.184,0.792,0.289,1.236,0.289c1.553,0,2.811-1.259,2.811-2.811
		c0-1.196-0.748-2.215-1.801-2.621c-0.571-0.243-1.156-0.469-1.754-0.676c-3.343-1.157-7.042-1.75-10.465-1.75
		c-7.093-0.074-15.158,3.211-15.083,11.126c0,7.84,7.765,9.557,14.858,10.528c5.75,0.598,10.304,1.792,10.231,5.899
		c-0.15,4.854-5.974,5.675-9.632,5.675c-3.308,0-6.761-0.796-9.788-2.316l0,0.001c-0.405-0.207-0.863-0.327-1.349-0.327
		c-1.64,0-2.969,1.329-2.969,2.969c0,1.184,0.695,2.203,1.697,2.68l-0.001,0.002c0.018,0.008,0.035,0.015,0.052,0.023
		c0.033,0.015,0.066,0.03,0.1,0.044c3.837,1.788,7.48,2.599,12.11,2.599c8.362,0,15.605-3.509,15.754-11.125
		C720.148,62.903,710.963,61.633,704.169,60.737z"/>
</g>
</svg>
